<svg width="278" height="56" viewBox="0 0 278 56" fill="none" xmlns="http://www.w3.org/2000/svg">
<mask id="mask0_222_7735" style="mask-type:luminance" maskUnits="userSpaceOnUse" x="0" y="0" width="275" height="34">
<path d="M274.667 0H0V33.3333H274.667V0Z" fill="white"/>
</mask>
<g mask="url(#mask0_222_7735)">
<mask id="mask1_222_7735" style="mask-type:luminance" maskUnits="userSpaceOnUse" x="1" y="0" width="34" height="28">
<path d="M1.33398 0.588379H34.6673V27.9998H1.33398V0.588379Z" fill="white"/>
</mask>
<g mask="url(#mask1_222_7735)">
<path d="M26.5521 27.1891H3.56771V22.8245H26.5C27.4271 22.8245 28.1563 22.5433 28.6927 21.9808C29.25 21.3975 29.526 20.6162 29.526 19.637C29.526 18.6475 29.25 17.8662 28.6979 17.2777C28.1667 16.71 27.4323 16.4287 26.5 16.4287H9.81771C7.60417 16.4287 5.83333 15.7256 4.51042 14.3245C3.20312 12.9443 2.54688 11.137 2.54688 8.90788C2.54688 6.65788 3.19792 4.83496 4.5 3.43913C5.17188 2.72038 5.95833 2.18392 6.86979 1.82454C7.75 1.47559 8.73438 1.30371 9.81771 1.30371H32.8073V5.66829H9.86979C8.96354 5.66829 8.23438 5.94955 7.6875 6.52246C7.125 7.10059 6.84375 7.87142 6.84375 8.84017C6.84375 9.81413 7.125 10.6058 7.6875 11.2048C7.95312 11.486 8.26042 11.6995 8.60417 11.8402C8.96875 11.9912 9.39062 12.0641 9.86979 12.0641H26.5521C28.75 12.0641 30.5156 12.7568 31.849 14.1423C33.1667 15.512 33.8229 17.3245 33.8229 19.5693C33.8229 21.8141 33.1719 23.6423 31.8698 25.0433C31.2031 25.762 30.4115 26.3037 29.5052 26.6631C28.6198 27.012 27.6406 27.1891 26.5521 27.1891ZM26.5521 24.6266C28.026 24.6266 29.1719 24.1839 29.9896 23.3037C30.8385 22.3923 31.2604 21.1475 31.2604 19.5693C31.2604 18.012 30.8385 16.7933 30 15.9183C29.1719 15.0589 28.0208 14.6266 26.5521 14.6266H9.86979C9.05729 14.6266 8.3125 14.4912 7.64062 14.2152C6.94271 13.9339 6.33854 13.512 5.8125 12.9548C4.79167 11.861 4.28125 10.4912 4.28125 8.84017C4.28125 7.18392 4.80208 5.81413 5.84375 4.74121C6.36979 4.19434 6.97917 3.78288 7.66667 3.50684C8.33333 3.24121 9.06771 3.10579 9.86979 3.10579H31.526V4.38704H30.2448V2.58496H31.526V3.86621H9.81771C8.34375 3.86621 7.19792 4.30371 6.375 5.18392C5.53125 6.09017 5.10938 7.32975 5.10938 8.90788C5.10938 10.46 5.53125 11.6787 6.36979 12.5641C7.19271 13.4339 8.33854 13.8662 9.81771 13.8662H26.5C27.3177 13.8662 28.0625 14.0016 28.7344 14.2725C29.4323 14.5485 30.0417 14.9652 30.5625 15.5225C31.5781 16.6006 32.0885 17.9756 32.0885 19.637C32.0885 21.2985 31.5729 22.6735 30.5469 23.7464C30.026 24.2985 29.4167 24.71 28.724 24.986C28.0521 25.2516 27.3125 25.387 26.5 25.387H4.84896V24.1058H6.13021V25.9079H4.84896V24.6266H26.5521Z" fill="#F4F4F4"/>
</g>
<mask id="mask2_222_7735" style="mask-type:luminance" maskUnits="userSpaceOnUse" x="34" y="0" width="35" height="28">
<path d="M34.668 0.588379H68.0013V27.9998H34.668V0.588379Z" fill="white"/>
</mask>
<g mask="url(#mask2_222_7735)">
<path d="M40.2227 4.38704V17.6006H38.9414V16.3193H57.8268C58.6185 16.3193 59.3216 16.1943 59.9362 15.9495C60.5299 15.71 61.0508 15.3506 61.4987 14.8714C62.4258 13.8818 62.8893 12.585 62.8893 10.9756C62.8893 9.361 62.4258 8.06934 61.4987 7.10059C60.5872 6.14225 59.3633 5.66829 57.8268 5.66829H38.9414V4.38704H40.2227ZM37.6602 3.10579H57.8268C58.9414 3.10579 59.957 3.28809 60.8789 3.65267C61.8164 4.02767 62.6393 4.58496 63.3529 5.32975C64.7487 6.79329 65.4518 8.67871 65.4518 10.9756C65.4518 13.262 64.7539 15.1423 63.3685 16.6214C62.6602 17.3766 61.8372 17.9443 60.8945 18.3245C59.9727 18.6943 58.9518 18.8818 57.8268 18.8818H37.6602V3.10579ZM38.9414 27.1891H35.9258V1.30371H57.8633C59.2643 1.30371 60.5299 1.52767 61.6602 1.97038C62.8216 2.42871 63.8268 3.11621 64.681 4.03288C66.3477 5.82454 67.1862 8.1735 67.1862 11.0745C67.1862 13.9443 66.3372 16.262 64.6445 18.0277C62.931 19.8089 60.6758 20.6995 57.8633 20.6995H38.9414V19.4183H40.2227V27.1891H38.9414ZM38.9414 24.6266V25.9079H37.6602V18.137H57.8633C59.9466 18.137 61.5872 17.5068 62.7956 16.2516C64.0143 14.9808 64.6237 13.2568 64.6237 11.0745C64.6237 8.84538 64.0143 7.07975 62.806 5.77767C61.6185 4.50163 59.9727 3.86621 57.8633 3.86621H37.207V2.58496H38.4883V25.9079H37.207V24.6266H38.9414Z" fill="#F4F4F4"/>
</g>
<mask id="mask3_222_7735" style="mask-type:luminance" maskUnits="userSpaceOnUse" x="68" y="0" width="39" height="28">
<path d="M68 0.588379H106.667V27.9998H68V0.588379Z" fill="white"/>
</mask>
<g mask="url(#mask3_222_7735)">
<path d="M73.2259 27.1891H68.9551L84.2884 1.30371H90.6217L105.95 27.1891H100.955L97.5801 21.4912L98.6842 20.835V22.1162H76.2415V20.835L77.3457 21.4912L73.9499 27.1891H73.2259ZM73.2259 24.6266V25.9079L72.1217 25.2516L75.5176 19.5537H99.4134L102.788 25.2568L101.684 25.9079V24.6266H103.705V25.9079L102.601 26.5589L88.7884 3.236L89.8926 2.58496V3.86621H85.0176V2.58496L86.1217 3.236L72.3092 26.5589L71.2051 25.9079V24.6266H73.2259ZM87.054 5.03809L78.3978 19.6839L77.2936 19.0329V17.7516H97.6165V19.0329L96.5124 19.6839L87.8665 5.03809L88.9707 4.38704V5.66829H85.9551V4.38704L87.054 5.03809ZM85.2207 3.10579H89.7051L99.8561 20.3141H75.0488L84.8509 3.736L85.2207 3.10579Z" fill="#F4F4F4"/>
</g>
<mask id="mask4_222_7735" style="mask-type:luminance" maskUnits="userSpaceOnUse" x="106" y="0" width="33" height="28">
<path d="M106.668 0.588379H138.668V27.9998H106.668V0.588379Z" fill="white"/>
</mask>
<g mask="url(#mask4_222_7735)">
<path d="M111.02 4.38704V17.6006H109.738V16.3193H128.624C129.415 16.3193 130.118 16.1943 130.733 15.9495C131.327 15.71 131.848 15.3506 132.296 14.8714C133.223 13.8818 133.686 12.585 133.686 10.9756C133.686 9.361 133.223 8.06934 132.296 7.10059C131.384 6.14225 130.16 5.66829 128.624 5.66829H109.738V4.38704H111.02ZM108.457 3.10579H128.624C129.738 3.10579 130.754 3.28809 131.676 3.65267C132.613 4.02767 133.436 4.58496 134.15 5.32975C135.546 6.79329 136.249 8.67871 136.249 10.9756C136.249 13.262 135.551 15.1423 134.165 16.6214C133.457 17.3766 132.634 17.9443 131.691 18.3245C130.77 18.6943 129.749 18.8818 128.624 18.8818H108.457V3.10579ZM109.738 27.1891H106.723V1.30371H128.66C130.066 1.30371 131.337 1.52767 132.467 1.97038C133.634 2.42871 134.639 3.11621 135.488 4.03288C137.15 5.82454 137.983 8.1735 137.983 11.0745C137.983 12.3923 137.79 13.6266 137.41 14.7829C137.009 15.986 136.363 17.0641 135.467 18.0225L135.457 18.0381L135.441 18.0485C134.322 19.1839 132.993 19.9495 131.462 20.3402L130.129 20.7048L129.796 19.4704L130.743 18.6058L138.525 27.1891H132.639L126.436 20.2725L127.389 19.4183V20.6995H109.738V19.4183H111.02V27.1891H109.738ZM109.738 24.6266V25.9079H108.457V18.137H127.962L134.165 25.0537L133.212 25.9079V24.6266H135.634V25.9079L134.681 26.7673L127.441 18.7777L130.827 17.861C131.9 17.585 132.832 17.0485 133.618 16.2464L134.53 17.1475L133.592 16.2777C134.233 15.5902 134.697 14.8245 134.973 13.9756C135.27 13.085 135.421 12.1162 135.421 11.0745C135.421 8.84017 134.816 7.07454 133.608 5.77767C132.426 4.50163 130.78 3.86621 128.66 3.86621H108.004V2.58496H109.285V25.9079H108.004V24.6266H109.738Z" fill="#F4F4F4"/>
</g>
<mask id="mask5_222_7735" style="mask-type:luminance" maskUnits="userSpaceOnUse" x="140" y="0" width="31" height="28">
<path d="M140 0.588379H170.667V27.9998H140V0.588379Z" fill="white"/>
</mask>
<g mask="url(#mask5_222_7735)">
<path d="M143.102 27.1891H140.086V1.30371H144.383V13.3454H143.102V12.0641H152.914V13.3454L152.044 12.4027L164.039 1.30371H170.341L155.492 15.1839L154.617 14.2464L155.492 13.3089L170.341 27.1891H164.039L152.044 16.1058L152.914 15.1631V16.4443H143.102V15.1631H144.383V27.1891H143.102ZM143.102 24.6266V25.9079H141.82V13.8818H153.414L165.409 24.9652L164.539 25.9079V24.6266H167.096V25.9079L166.221 26.8454L152.737 14.2464L166.221 1.64746L167.096 2.58496V3.86621H164.539V2.58496L165.414 3.52767L153.414 14.6266H141.82V2.58496H143.102V3.86621H141.367V2.58496H142.648V25.9079H141.367V24.6266H143.102Z" fill="#F4F4F4"/>
</g>
<mask id="mask6_222_7735" style="mask-type:luminance" maskUnits="userSpaceOnUse" x="170" y="0" width="31" height="28">
<path d="M170.668 0.588379H200.001V27.9998H170.668V0.588379Z" fill="white"/>
</mask>
<g mask="url(#mask6_222_7735)">
<path d="M198.473 27.1891H171.848V1.30371H176.181V24.1058H174.9V22.8245H199.754V27.1891H198.473ZM198.473 24.6266V25.9079H197.191V24.1058H198.473V25.387H173.618V2.58496H174.9V3.86621H173.129V2.58496H174.41V25.9079H173.129V24.6266H198.473Z" fill="#F4F4F4"/>
</g>
<mask id="mask7_222_7735" style="mask-type:luminance" maskUnits="userSpaceOnUse" x="201" y="0" width="6" height="28">
<path d="M201.334 0.588379H206.667V27.9998H201.334V0.588379Z" fill="white"/>
</mask>
<g mask="url(#mask7_222_7735)">
<path d="M201.975 1.30371H206.271V27.1891H201.975V1.30371Z" fill="#F4F4F4"/>
</g>
<mask id="mask8_222_7735" style="mask-type:luminance" maskUnits="userSpaceOnUse" x="208" y="0" width="34" height="28">
<path d="M208 0.588379H241.333V27.9998H208V0.588379Z" fill="white"/>
</mask>
<g mask="url(#mask8_222_7735)">
<path d="M212.311 27.1891H209.295V1.30371H213.311L238.383 23.2256L237.54 24.1891H236.258V1.30371H240.555V27.1891H236.529L211.477 5.55892L212.311 4.58496H213.592V27.1891H212.311ZM212.311 24.6266V25.9079H211.029V1.78809L237.842 24.9391L237.003 25.9079V24.6266H239.274V25.9079H237.993V2.58496H239.274V3.86621H237.54V2.58496H238.821V27.012L211.988 3.5485L212.831 2.58496V3.86621H210.576V2.58496H211.857V25.9079H210.576V24.6266H212.311Z" fill="#F4F4F4"/>
</g>
<mask id="mask9_222_7735" style="mask-type:luminance" maskUnits="userSpaceOnUse" x="241" y="0" width="33" height="28">
<path d="M241.334 0.588379H273.334V27.9998H241.334V0.588379Z" fill="white"/>
</mask>
<g mask="url(#mask9_222_7735)">
<path d="M270.986 27.1891H242.658V1.30371H272.268V5.66829H245.674V4.38704H246.955V13.3454H245.674V12.0641H266.242V16.4287H245.674V15.1475H246.955V24.1058H245.674V22.8245H272.268V27.1891H270.986ZM270.986 24.6266V25.9079H269.705V24.1058H270.986V25.387H244.393V13.8662H264.96V15.1475H263.679V13.3454H264.96V14.6266H244.393V3.10579H270.986V4.38704H269.705V2.58496H270.986V3.86621H243.939V2.58496H245.221V25.9079H243.939V24.6266H270.986Z" fill="#F4F4F4"/>
</g>
<path d="M26.5514 25.9077H4.8431V24.116H26.5098C27.7858 24.116 28.8223 23.6994 29.6139 22.866C30.4056 22.0327 30.8014 20.9598 30.8014 19.6369C30.8014 18.3192 30.4056 17.241 29.6139 16.4077C28.8327 15.564 27.8014 15.1369 26.5098 15.1369H9.82227C7.97331 15.1369 6.50977 14.5744 5.42643 13.4494C4.35352 12.314 3.82227 10.7983 3.82227 8.90772C3.82227 6.99105 4.35352 5.46501 5.42643 4.32438C6.50977 3.17334 7.97331 2.59521 9.82227 2.59521H31.5306V4.38688H9.86393C8.59831 4.38688 7.56185 4.80355 6.75977 5.63688C5.9681 6.4598 5.57227 7.52751 5.57227 8.84522C5.57227 10.1525 5.95768 11.2306 6.73893 12.0744C7.5306 12.9233 8.57227 13.3452 9.86393 13.3452H26.5514C28.3848 13.3452 29.8327 13.9077 30.9056 15.0327C31.9889 16.1577 32.5306 17.6733 32.5306 19.5744C32.5306 21.4806 31.9941 23.0119 30.9264 24.1785C29.8535 25.3348 28.3952 25.9077 26.5514 25.9077Z" fill="#F4F4F4"/>
<path d="M38.9512 4.38688V17.5952H57.8262C59.7428 17.5952 61.2741 16.9806 62.4303 15.741C63.5814 14.5067 64.1595 12.9181 64.1595 10.9702C64.1595 9.01188 63.5762 7.42855 62.4095 6.22021C61.2533 5.00146 59.7272 4.38688 57.8262 4.38688H38.9512ZM38.9512 25.9077H37.2012V2.59521H57.8678C60.3366 2.59521 62.2949 3.36605 63.7428 4.90771C65.1855 6.44938 65.9095 8.50667 65.9095 11.0744C65.9095 13.6056 65.1803 15.6265 63.722 17.1369C62.2637 18.6525 60.3105 19.4077 57.8678 19.4077H38.9512V25.9077Z" fill="#F4F4F4"/>
<path d="M73.2318 25.9077H71.2109L85.0234 2.59521H89.8984L103.711 25.9077H101.69L98.6901 20.8452H76.2526L73.2318 25.9077ZM85.9609 4.38688L77.2943 19.0327H97.6068L88.9818 4.38688H85.9609Z" fill="#F4F4F4"/>
<path d="M109.748 4.38688V17.5952H128.623C130.54 17.5952 132.071 16.9806 133.227 15.741C134.378 14.5067 134.956 12.9181 134.956 10.9702C134.956 9.01188 134.373 7.42855 133.206 6.22021C132.05 5.00146 130.524 4.38688 128.623 4.38688H109.748ZM109.748 25.9077H107.998V2.59521H128.665C131.149 2.59521 133.107 3.36605 134.54 4.90771C135.982 6.44938 136.706 8.50667 136.706 11.0744C136.706 12.2567 136.529 13.3608 136.186 14.3869C135.852 15.4025 135.3 16.3244 134.54 17.1577C133.581 18.116 132.446 18.7619 131.144 19.0952L129.79 19.4702L135.623 25.9077H133.206L127.394 19.4077H109.748V25.9077Z" fill="#F4F4F4"/>
<path d="M143.111 25.9077H141.361V2.59521H143.111V13.3452H152.903L164.549 2.59521H167.09L154.611 14.241L167.09 25.9077H164.549L152.903 15.1577H143.111V25.9077Z" fill="#F4F4F4"/>
<path d="M198.477 25.9077H173.123V2.59521H174.894V24.116H198.477V25.9077Z" fill="#F4F4F4"/>
<path d="M205 25.9077H203.25V2.59521H205V25.9077Z" fill="#F4F4F4"/>
<path d="M212.322 25.9077H210.572V2.59521H212.822L237.531 24.1994V2.59521H239.281V25.9077H237.01L212.322 4.59521V25.9077Z" fill="#F4F4F4"/>
<path d="M270.975 25.9077H243.934V2.59521H270.975V4.38688H245.684V13.3452H264.954V15.1369H245.684V24.116H270.975V25.9077Z" fill="#F4F4F4"/>
</g>
<mask id="mask10_222_7735" style="mask-type:luminance" maskUnits="userSpaceOnUse" x="2" y="33" width="276" height="23">
<path d="M277.335 33.333H2.66797V55.9997H277.335V33.333Z" fill="white"/>
</mask>
<g mask="url(#mask10_222_7735)">
<path d="M7.1263 37.3721L11.3763 47.9554L15.6263 37.3721H17.8346V50.3512H16.1263V45.2887L16.293 39.8512L12.0221 50.3512H10.7096L6.45964 39.8721L6.6263 45.2887V50.3512H4.91797V37.3721H7.1263Z" fill="#F4F4F4"/>
<path d="M37.1589 46.9554H31.7214L30.513 50.3512H28.7422L33.7005 37.3721H35.2005L40.1589 50.3512H38.4089L37.1589 46.9554ZM32.2422 45.5596H36.6589L34.4505 39.4971L32.2422 45.5596Z" fill="#F4F4F4"/>
<path d="M55.8118 45.1012H52.7493V50.3512H51.041V37.3721H55.3327C56.791 37.3721 57.916 37.7054 58.7077 38.3721C59.4993 39.0387 59.8952 40.0127 59.8952 41.2887C59.8952 42.096 59.6712 42.7992 59.2285 43.3929C58.7962 43.9919 58.1921 44.445 57.416 44.7471L60.4577 50.2471V50.3512H58.6243L55.8118 45.1012ZM52.7493 43.7054H55.3952C56.2389 43.7054 56.916 43.4919 57.416 43.0596C57.916 42.6169 58.166 42.0283 58.166 41.2887C58.166 40.4867 57.9212 39.8669 57.4368 39.4346C56.9629 39.0075 56.2754 38.7887 55.3743 38.7887H52.7493V43.7054Z" fill="#F4F4F4"/>
<path d="M74.7344 44.3096L73.1302 45.9762V50.3512H71.4219V37.3721H73.1302V43.7887L78.901 37.3721H80.9635L75.8594 43.1012L81.3802 50.3512H79.3177L74.7344 44.3096Z" fill="#F4F4F4"/>
<path d="M99.3392 44.3512H93.7142V48.9554H100.256V50.3512H92.0059V37.3721H100.173V38.7887H93.7142V42.9554H99.3392V44.3512Z" fill="#F4F4F4"/>
<path d="M120.503 38.7887H116.315V50.3512H114.628V38.7887H110.461V37.3721H120.503V38.7887Z" fill="#F4F4F4"/>
<path d="M133.388 50.3512H131.68V37.3721H133.388V50.3512Z" fill="#F4F4F4"/>
<path d="M155.645 50.3512H153.916L147.395 40.3512V50.3512H145.666V37.3721H147.395L153.937 47.4137V37.3721H155.645V50.3512Z" fill="#F4F4F4"/>
<path d="M177.4 48.6431C176.952 49.2837 176.338 49.7629 175.546 50.0806C174.765 50.3827 173.859 50.5389 172.817 50.5389C171.76 50.5389 170.822 50.2889 170.005 49.7889C169.182 49.2889 168.546 48.5806 168.088 47.6639C167.64 46.7472 167.411 45.6951 167.4 44.4972V43.3514C167.4 41.4087 167.848 39.9035 168.755 38.8306C169.671 37.7472 170.952 37.2056 172.609 37.2056C173.968 37.2056 175.057 37.5545 175.88 38.2472C176.713 38.9295 177.218 39.9087 177.4 41.1847H175.692C175.369 39.466 174.348 38.6014 172.63 38.6014C171.473 38.6014 170.598 39.0077 170.005 39.8097C169.421 40.617 169.13 41.7837 169.13 43.3097V44.3722C169.13 45.8306 169.463 46.992 170.13 47.8514C170.796 48.7004 171.692 49.1222 172.817 49.1222C173.452 49.1222 174.015 49.0545 174.505 48.9139C174.989 48.7785 175.385 48.5337 175.692 48.1847V45.2889H172.692V43.8931H177.4V48.6431Z" fill="#F4F4F4"/>
<path d="M210.223 44.6221H204.765V50.3512H203.057V37.3721H211.098V38.7887H204.765V43.2262H210.223V44.6221Z" fill="#F4F4F4"/>
<path d="M224.12 50.3512H222.412V37.3721H224.12V50.3512Z" fill="#F4F4F4"/>
<path d="M241.167 45.1012H238.105V50.3512H236.396V37.3721H240.688C242.146 37.3721 243.271 37.7054 244.063 38.3721C244.855 39.0387 245.251 40.0127 245.251 41.2887C245.251 42.096 245.027 42.7992 244.584 43.3929C244.152 43.9919 243.548 44.445 242.771 44.7471L245.813 50.2471V50.3512H243.98L241.167 45.1012ZM238.105 43.7054H240.751C241.594 43.7054 242.271 43.4919 242.771 43.0596C243.271 42.6169 243.521 42.0283 243.521 41.2887C243.521 40.4867 243.277 39.8669 242.792 39.4346C242.318 39.0075 241.631 38.7887 240.73 38.7887H238.105V43.7054Z" fill="#F4F4F4"/>
<path d="M258.986 37.3721L263.236 47.9554L267.486 37.3721H269.694V50.3512H267.986V45.2887L268.152 39.8512L263.882 50.3512H262.569L258.319 39.8721L258.486 45.2887V50.3512H256.777V37.3721H258.986Z" fill="#F4F4F4"/>
</g>
</svg>
