<svg width="240" height="109" viewBox="0 0 240 109" fill="none" xmlns="http://www.w3.org/2000/svg">
<path d="M221.553 0.187988H240V10.2585H231.059V29.7406H240V39.8111H231.059V64.3755H240V74.446H221.553V0.187988Z" fill="white"/>
<path d="M202.646 38.6817L203.305 50.3521V74.446H193.799V0.187988H204.246L207.446 30.2112L208.481 40.2817L207.728 29.6465L207.822 0.187988H215.916V74.446H207.163L203.681 49.6933L202.646 38.6817Z" fill="white"/>
<path d="M177.168 0.187988H187.521V74.446H177.168V0.187988Z" fill="white"/>
<path d="M150.334 0.187988H159.84V64.3755H170.851V74.446H150.334V0.187988Z" fill="white"/>
<path d="M128.299 28.3289L130.276 13.3643C130.276 13.3643 133.476 0.658571 133.57 0.187988H144.675L134.605 36.7052L144.675 74.446H133.57L130.276 62.4932L128.017 46.1169L129.711 63.3402V74.446H120.205V0.187988H129.711V12.6114L128.299 28.3289Z" fill="white"/>
<path d="M98.6347 10.2585V35.9523H99.3876C101.176 35.9523 101.741 34.7288 101.741 32.9406V12.7055C101.741 11.0114 100.893 10.2585 99.3876 10.2585H98.6347ZM98.6347 74.446L89.1289 74.3519V0.187988H99.3876C108.799 0.187988 112.093 2.63502 112.093 12.7055V32.9406C112.093 39.4346 110.964 41.5052 108.046 43.1993C109.646 44.2346 112.093 46.211 112.093 50.7286C112.093 54.9638 111.999 62.3049 112.093 71.1519C112.093 72.2813 113.223 74.446 113.223 74.446H102.87C102.87 74.446 101.741 72.1872 101.741 71.0578C101.646 62.7755 101.741 54.8697 101.741 50.7286C101.741 46.9639 100.611 46.0228 99.3876 46.0228C97.0347 46.0228 98.6347 46.0228 98.6347 46.0228V74.446Z" fill="white"/>
<path d="M70.3481 20.3292L69.9716 30.5879L68.7481 47.1524H71.2893L70.5363 31.3408L70.3481 20.3292ZM66.207 74.4462H55.1953L65.7364 0H75.5245L84.4656 74.4462H74.1128L72.4186 57.7876H67.9011L66.207 74.4462Z" fill="white"/>
<path d="M39.4511 10.1643V40.2817H40.2981C42.3687 40.2817 42.6511 38.7758 42.6511 36.1405V13.929C42.6511 11.1996 41.9922 10.1643 40.2981 10.1643H39.4511ZM39.4511 74.446L29.9453 74.3519V0.187988H40.2981C51.0274 0.187988 53.0039 3.85853 53.0039 13.929V36.1405C53.0039 46.5875 50.7451 50.3521 40.2981 50.3521C37.9452 50.3521 39.4511 50.3521 39.4511 50.3521V74.446Z" fill="white"/>
<path d="M23.6233 27.67H13.2704C13.1763 22.2113 13.2704 15.3408 13.2704 13.1761C13.2704 11.2938 12.7999 10.2585 11.8587 10.2585C10.5411 10.2585 10.2587 11.482 10.2587 13.1761V26.5406C10.2587 27.7642 10.6352 28.7053 11.8587 29.1759C19.9527 32.7523 23.6233 33.7876 23.6233 43.4816V62.2108C23.6233 70.0225 21.6468 74.8225 11.8587 74.8225C4.23525 74.8225 0 71.0578 0 62.2108V42.5405H10.2587C10.2587 48.4698 10.2587 59.6697 10.2587 62.2108C10.2587 63.9049 10.7293 64.752 11.8587 64.752C13.1763 64.752 13.2704 63.8108 13.2704 62.2108V43.4816C13.2704 42.0699 13.1763 41.0346 11.8587 40.3758C4.79995 37.364 0 35.8582 0 26.5406V13.1761C0 3.57619 2.44703 0.187988 11.8587 0.187988C21.2704 0.187988 23.6233 3.76442 23.6233 13.1761V27.67Z" fill="white"/>
<path d="M218.67 88.0288H221.638L228.616 105.074H228.857L235.836 88.0288H238.803V108.563H236.477V92.9619H236.277L229.86 108.563H227.614L221.197 92.9619H220.996V108.563H218.67V88.0288Z" fill="white"/>
<path d="M200.609 108.563V88.0288H207.548C209.152 88.0288 210.469 88.3029 211.498 88.851C212.528 89.3924 213.29 90.1377 213.784 91.0869C214.279 92.0361 214.526 93.1157 214.526 94.3255C214.526 95.5354 214.279 96.6083 213.784 97.5441C213.29 98.4799 212.531 99.2152 211.508 99.7499C210.486 100.278 209.179 100.542 207.588 100.542H201.973V98.2961H207.508C208.604 98.2961 209.486 98.1356 210.155 97.8148C210.83 97.4939 211.318 97.0394 211.619 96.4512C211.926 95.8563 212.08 95.1477 212.08 94.3255C212.08 93.5033 211.926 92.7848 211.619 92.1698C211.311 91.5548 210.82 91.0802 210.145 90.746C209.47 90.4051 208.577 90.2347 207.468 90.2347H203.096V108.563H200.609ZM210.275 99.3388L215.328 108.563H212.441L207.468 99.3388H210.275Z" fill="white"/>
<path d="M195.623 88.0288V108.563H193.137V88.0288H195.623Z" fill="white"/>
<path d="M176.564 108.563V88.0288H188.877V90.2347H179.051V97.1731H187.955V99.379H179.051V108.563H176.564Z" fill="white"/>
<path d="M161.679 94.4453C161.459 93.7702 161.168 93.1653 160.807 92.6305C160.453 92.0891 160.028 91.6279 159.534 91.2469C159.046 90.8658 158.491 90.5751 157.869 90.3745C157.247 90.174 156.566 90.0737 155.824 90.0737C154.607 90.0737 153.501 90.3879 152.505 91.0162C151.509 91.6446 150.717 92.5704 150.129 93.7936C149.54 95.0169 149.246 96.5175 149.246 98.2956C149.246 100.074 149.544 101.574 150.139 102.798C150.734 104.021 151.539 104.947 152.555 105.575C153.571 106.203 154.714 106.517 155.984 106.517C157.161 106.517 158.197 106.267 159.092 105.765C159.995 105.257 160.697 104.542 161.198 103.62C161.706 102.691 161.96 101.598 161.96 100.341L162.722 100.501H156.546V98.2956H164.366V100.501C164.366 102.193 164.005 103.663 163.284 104.913C162.568 106.163 161.579 107.132 160.316 107.821C159.059 108.503 157.615 108.844 155.984 108.844C154.166 108.844 152.568 108.416 151.191 107.56C149.821 106.705 148.752 105.488 147.983 103.91C147.221 102.333 146.84 100.461 146.84 98.2956C146.84 96.6713 147.057 95.2107 147.492 93.9139C147.933 92.6105 148.554 91.5009 149.357 90.5851C150.159 89.6693 151.108 88.9675 152.204 88.4795C153.3 87.9915 154.507 87.7476 155.824 87.7476C156.907 87.7476 157.916 87.9113 158.852 88.2389C159.794 88.5597 160.633 89.0176 161.368 89.6125C162.11 90.2007 162.729 90.9059 163.223 91.7281C163.718 92.5436 164.059 93.4494 164.246 94.4453H161.679Z" fill="white"/>
<path d="M142.666 88.0288V108.563H140.26L129.07 92.4405H128.869V108.563H126.383V88.0288H128.789L140.019 104.192H140.22V88.0288H142.666Z" fill="white"/>
<path d="M121.397 88.0288V108.563H118.91V88.0288H121.397Z" fill="white"/>
<path d="M99.6699 90.2347V88.0288H115.071V90.2347H108.614V108.563H106.127V90.2347H99.6699Z" fill="white"/>
<path d="M83.9199 108.563V88.0288H96.3128V90.2347H86.4065V97.1731H95.6711V99.379H86.4065V106.357H96.4733V108.563H83.9199Z" fill="white"/>
<path d="M65.5 108.563V88.0288H67.9866V98.2159H68.2272L77.4517 88.0288H80.7004L72.0775 97.2934L80.7004 108.563H77.6924L70.5534 99.018L67.9866 101.906V108.563H65.5Z" fill="white"/>
<path d="M47.4395 108.563V88.0288H54.3779C55.9821 88.0288 57.299 88.3029 58.3284 88.851C59.3578 89.3924 60.1198 90.1377 60.6144 91.0869C61.1091 92.0361 61.3564 93.1157 61.3564 94.3255C61.3564 95.5354 61.1091 96.6083 60.6144 97.5441C60.1198 98.4799 59.3611 99.2152 58.3384 99.7499C57.3157 100.278 56.0089 100.542 54.418 100.542H48.8031V98.2961H54.3378C55.434 98.2961 56.3164 98.1356 56.9848 97.8148C57.6599 97.4939 58.1479 97.0394 58.4487 96.4512C58.7562 95.8563 58.9099 95.1477 58.9099 94.3255C58.9099 93.5033 58.7562 92.7848 58.4487 92.1698C58.1412 91.5548 57.6499 91.0802 56.9748 90.746C56.2996 90.4051 55.4073 90.2347 54.2977 90.2347H49.9261V108.563H47.4395ZM57.1051 99.3388L62.1585 108.563H59.2709L54.2977 99.3388H57.1051Z" fill="white"/>
<path d="M29.2007 108.563H26.5938L34.1338 88.0288H36.7006L44.2406 108.563H41.6337L35.4974 91.2774H35.337L29.2007 108.563ZM30.1632 100.542H40.6711V102.748H30.1632V100.542Z" fill="white"/>
<path d="M3.24023 88.0288H6.20812L13.1866 105.074H13.4273L20.4058 88.0288H23.3737V108.563H21.0475V92.9619H20.847L14.43 108.563H12.184L5.76694 92.9619H5.56641V108.563H3.24023V88.0288Z" fill="white"/>
</svg>
